<?xml version="1.0" encoding="UTF-8"?>
<svg id="b" data-name="Layer 2" xmlns="http://www.w3.org/2000/svg" width="1280.335" height="745.244" viewBox="0 0 1280.335 745.244">
  <g id="c" data-name="Layer 1">
    <g>
      <g>
        <g>
          <rect x="48.595" y="3.699" width="1228.041" height="690.773" fill="#fff" stroke-width="0"/>
          <path d="m1280.335,698.171H44.896V0h1235.439v698.171Zm-1228.042-7.398h1220.643V7.397H52.294v683.375Z" fill="#1d1d1b" stroke-width="0"/>
        </g>
        <rect x="182.912" y="29.283" width="959.407" height="639.605" fill="#1d1d1b" stroke-width="0"/>
        <g>
          <path d="m86.798,738.144h-7.253v-22.297h-4.643v-6.102h11.896v28.398Z" stroke-width="0"/>
          <path d="m104.865,738.144h-8.404l6.37-8.711c-.359.128-.832.192-1.42.192-2.482,0-4.618-.908-6.409-2.725-1.791-1.816-2.686-4.119-2.686-6.908,0-3.095,1.049-5.666,3.147-7.714,2.097-2.047,4.72-3.07,7.867-3.07,3.121,0,5.788.928,8.002,2.782,2.212,1.855,3.32,4.458,3.32,7.81,0,2.585-.921,5.245-2.763,7.982l-7.023,10.362Zm2.533-18.651c0-1.1-.378-2.027-1.132-2.782-.755-.755-1.682-1.132-2.782-1.132-1.075,0-1.996.364-2.763,1.094-.767.729-1.151,1.631-1.151,2.706,0,1.1.37,2.021,1.113,2.763.742.742,1.676,1.113,2.802,1.113,1.1,0,2.027-.358,2.782-1.075.755-.716,1.132-1.612,1.132-2.686Z" stroke-width="0"/>
          <path d="m136.928,738.144h-20.032v-5.641c3.531-2.277,6.063-4.208,7.598-5.795,3.325-3.377,4.989-6.166,4.989-8.366,0-.819-.25-1.483-.749-1.996-.499-.512-1.145-.767-1.938-.767-2.021,0-3.108,1.497-3.262,4.49h-6.908c0-3.326.946-5.968,2.84-7.925,1.893-1.957,4.426-2.936,7.598-2.936,2.84,0,5.161.8,6.965,2.399,1.804,1.599,2.706,3.55,2.706,5.853s-.717,4.573-2.149,6.812c-1.433,2.239-3.864,4.83-7.292,7.771h9.632v6.102Z" stroke-width="0"/>
          <path d="m161.128,719.647v8.404c0,3.198-1.017,5.77-3.051,7.713-2.034,1.945-4.509,2.917-7.426,2.917-2.943,0-5.463-.978-7.56-2.936-2.098-1.957-3.147-4.522-3.147-7.694v-8.328c0-3.198,1.061-5.75,3.185-7.656,2.123-1.906,4.605-2.859,7.445-2.859,2.942,0,5.436.973,7.483,2.917,2.047,1.945,3.07,4.452,3.07,7.522Zm-7.253,8.558v-8.519c0-2.737-1.113-4.106-3.339-4.106-1.049,0-1.868.378-2.456,1.132-.589.755-.883,1.746-.883,2.974v8.519c0,1.254.294,2.252.883,2.993.588.742,1.407,1.113,2.456,1.113,2.226,0,3.339-1.368,3.339-4.106Z" stroke-width="0"/>
          <path d="m171.401,745.244h-6.37v-28.398h5.987v2.341h.115c1.637-2.047,3.863-3.07,6.677-3.07,3.018,0,5.5,1.1,7.445,3.3,1.944,2.201,2.916,4.963,2.916,8.289,0,3.096-.978,5.731-2.936,7.905-1.957,2.175-4.433,3.262-7.426,3.262-2.661,0-4.797-.883-6.409-2.648v9.018Zm1.266-13.892c1.023,1.049,2.289,1.573,3.799,1.573s2.776-.531,3.799-1.592c1.023-1.062,1.535-2.334,1.535-3.819,0-1.509-.518-2.795-1.554-3.857-1.036-1.062-2.309-1.593-3.819-1.593-1.458,0-2.706.525-3.742,1.573-1.036,1.049-1.554,2.341-1.554,3.876,0,1.51.511,2.789,1.535,3.838Z" stroke-width="0"/>
          <path d="m212.053,738.144h-7.79l-4.26-6.601-4.336,6.601h-7.675l8.097-11.398-7.177-9.901h7.637l3.454,5.603,3.416-5.603h7.56l-7.177,9.901,8.251,11.398Z" stroke-width="0"/>
        </g>
        <g>
          <path d="m28.936,656.991v7.253H6.639v4.643H.537v-11.896h28.398Z" stroke-width="0"/>
          <path d="m10.439,629.21h8.404c3.198,0,5.77,1.017,7.713,3.051,1.945,2.034,2.917,4.509,2.917,7.425,0,2.943-.978,5.463-2.936,7.56-1.957,2.098-4.522,3.147-7.694,3.147h-8.328c-3.198,0-5.75-1.061-7.656-3.186-1.906-2.123-2.859-4.605-2.859-7.445,0-2.941.973-5.436,2.917-7.483,1.945-2.046,4.452-3.07,7.522-3.07Zm8.558,7.254h-8.519c-2.737,0-4.106,1.112-4.106,3.338,0,1.049.378,1.868,1.132,2.456.755.59,1.746.883,2.974.883h8.519c1.254,0,2.252-.294,2.993-.883.742-.588,1.113-1.407,1.113-2.456,0-2.225-1.368-3.338-4.106-3.338Z" stroke-width="0"/>
          <path d="m13.317,610.199c.614-1.432,1.548-2.533,2.801-3.3,1.254-.767,2.738-1.151,4.452-1.151,2.508,0,4.618,1.024,6.332,3.07,1.715,2.047,2.571,4.465,2.571,7.253s-.844,5.219-2.533,7.292c-1.688,2.072-3.838,3.109-6.447,3.109-1.637,0-3.082-.384-4.336-1.151-1.253-.768-2.2-1.868-2.84-3.3-1.407,1.842-3.185,2.763-5.334,2.763-2.328,0-4.241-.838-5.737-2.514-1.497-1.675-2.245-3.728-2.245-6.159s.749-4.483,2.245-6.159,3.371-2.514,5.622-2.514c2.175,0,3.991.921,5.449,2.763Zm9.786,5.795c0-.818-.319-1.522-.959-2.111-.639-.588-1.394-.882-2.264-.882-.895,0-1.663.301-2.302.901-.639.602-.959,1.337-.959,2.207,0,.921.307,1.669.921,2.245s1.381.863,2.302.863,1.695-.307,2.322-.921c.627-.614.94-1.382.94-2.302Zm-12.76,1.995c.499-.485.748-1.099.748-1.841s-.269-1.369-.806-1.881c-.537-.512-1.164-.768-1.88-.768-.691,0-1.285.256-1.785.768-.499.512-.748,1.112-.748,1.803,0,.717.25,1.338.748,1.861.499.525,1.12.787,1.861.787s1.362-.243,1.861-.73Z" stroke-width="0"/>
          <path d="m10.439,581.824h8.404c3.198,0,5.77,1.017,7.713,3.051,1.945,2.034,2.917,4.51,2.917,7.426,0,2.943-.978,5.463-2.936,7.56-1.957,2.098-4.522,3.147-7.694,3.147h-8.328c-3.198,0-5.75-1.061-7.656-3.185-1.906-2.124-2.859-4.606-2.859-7.445,0-2.942.973-5.437,2.917-7.483,1.945-2.047,4.452-3.071,7.522-3.071Zm8.558,7.253h-8.519c-2.737,0-4.106,1.113-4.106,3.339,0,1.049.378,1.868,1.132,2.456.755.588,1.746.883,2.974.883h8.519c1.254,0,2.252-.294,2.993-.883.742-.588,1.113-1.407,1.113-2.456,0-2.226-1.368-3.339-4.106-3.339Z" stroke-width="0"/>
          <path d="m36.036,571.551v6.37H7.637v-5.986h2.341v-.116c-2.047-1.637-3.07-3.863-3.07-6.678,0-3.018,1.1-5.5,3.3-7.445,2.201-1.944,4.963-2.916,8.289-2.916,3.096,0,5.731.978,7.905,2.936,2.175,1.958,3.262,4.432,3.262,7.425,0,2.661-.883,4.797-2.648,6.409h9.018Zm-13.892-1.266c1.049-1.023,1.573-2.29,1.573-3.8s-.531-2.776-1.592-3.8c-1.062-1.023-2.334-1.535-3.819-1.535-1.509,0-2.795.518-3.857,1.554-1.062,1.036-1.593,2.309-1.593,3.818,0,1.458.525,2.706,1.573,3.742,1.049,1.036,2.341,1.554,3.876,1.554,1.51,0,2.789-.512,3.838-1.535Z" stroke-width="0"/>
          <path d="m28.936,530.899v7.79l-6.601,4.26,6.601,4.337v7.675l-11.398-8.097-9.901,7.176v-7.637l5.603-3.454-5.603-3.415v-7.56l9.901,7.177,11.398-8.251Z" stroke-width="0"/>
        </g>
        <g>
          <path d="m948.727,70.226h-7.253v-22.296h-4.643v-6.102h11.896v28.399Z" fill="#fff" stroke-width="0"/>
          <path d="m973.683,47.93h-10.131l-.614,3.876c1.023-.563,2.328-.844,3.914-.844,2.84,0,5.117.954,6.831,2.859,1.714,1.906,2.571,4.139,2.571,6.697,0,2.788-1.004,5.2-3.013,7.234-2.009,2.034-4.637,3.051-7.886,3.051-2.789,0-5.168-.73-7.138-2.187-1.97-1.458-3.198-3.454-3.684-5.987h7.291c.819,1.177,1.931,1.765,3.339,1.765,1.049,0,1.95-.364,2.706-1.094.754-.73,1.132-1.618,1.132-2.667,0-1.074-.371-1.963-1.113-2.667-.742-.703-1.663-1.056-2.763-1.056-1.765,0-3.007.819-3.723,2.456l-5.871-1.458,2.456-16.08h15.696v6.102Z" fill="#fff" stroke-width="0"/>
          <path d="m999.924,51.729v8.405c0,3.198-1.017,5.769-3.051,7.713-2.034,1.945-4.509,2.917-7.426,2.917-2.943,0-5.463-.978-7.56-2.936-2.098-1.958-3.147-4.522-3.147-7.694v-8.328c0-3.198,1.061-5.75,3.185-7.656,2.123-1.906,4.605-2.859,7.445-2.859,2.942,0,5.436.973,7.483,2.917,2.047,1.944,3.07,4.451,3.07,7.522Zm-7.253,8.558v-8.519c0-2.738-1.113-4.106-3.339-4.106-1.049,0-1.868.377-2.456,1.132-.589.755-.883,1.746-.883,2.974v8.519c0,1.254.294,2.252.883,2.994.588.742,1.407,1.112,2.456,1.112,2.226,0,3.339-1.369,3.339-4.106Z" fill="#fff" stroke-width="0"/>
          <path d="m1024.404,51.729v8.405c0,3.198-1.017,5.769-3.051,7.713-2.034,1.945-4.509,2.917-7.426,2.917-2.943,0-5.463-.978-7.56-2.936-2.098-1.958-3.147-4.522-3.147-7.694v-8.328c0-3.198,1.061-5.75,3.185-7.656,2.123-1.906,4.605-2.859,7.445-2.859,2.942,0,5.436.973,7.483,2.917,2.047,1.944,3.07,4.451,3.07,7.522Zm-7.253,8.558v-8.519c0-2.738-1.113-4.106-3.339-4.106-1.049,0-1.868.377-2.456,1.132-.589.755-.883,1.746-.883,2.974v8.519c0,1.254.294,2.252.883,2.994.588.742,1.407,1.112,2.456,1.112,2.226,0,3.339-1.369,3.339-4.106Z" fill="#fff" stroke-width="0"/>
          <path d="m1034.677,77.326h-6.37v-28.398h5.987v2.34h.115c1.637-2.046,3.863-3.069,6.677-3.069,3.018,0,5.5,1.1,7.445,3.3,1.944,2.2,2.916,4.963,2.916,8.289,0,3.096-.978,5.731-2.936,7.906-1.957,2.175-4.433,3.262-7.426,3.262-2.661,0-4.797-.883-6.409-2.648v9.018Zm1.266-13.892c1.023,1.049,2.289,1.573,3.799,1.573s2.776-.531,3.799-1.593c1.023-1.061,1.535-2.334,1.535-3.818,0-1.509-.518-2.795-1.554-3.857-1.036-1.061-2.309-1.593-3.819-1.593-1.458,0-2.706.525-3.742,1.574-1.036,1.049-1.554,2.341-1.554,3.876,0,1.51.511,2.789,1.535,3.838Z" fill="#fff" stroke-width="0"/>
          <path d="m1075.329,70.226h-7.79l-4.26-6.601-4.336,6.601h-7.675l8.097-11.398-7.177-9.901h7.637l3.454,5.603,3.416-5.603h7.56l-7.177,9.901,8.251,11.398Z" fill="#fff" stroke-width="0"/>
        </g>
        <g>
          <path d="m1121.6,211.297v7.253h-22.296v4.643h-6.102v-11.896h28.399Z" fill="#fff" stroke-width="0"/>
          <path d="m1103.102,183.516h8.405c3.198,0,5.769,1.017,7.713,3.051,1.945,2.034,2.917,4.509,2.917,7.426,0,2.942-.978,5.463-2.936,7.56s-4.522,3.147-7.694,3.147h-8.328c-3.198,0-5.75-1.062-7.656-3.186s-2.859-4.605-2.859-7.445c0-2.941.973-5.436,2.917-7.483,1.944-2.046,4.451-3.071,7.522-3.071Zm8.558,7.254h-8.519c-2.738,0-4.106,1.112-4.106,3.339,0,1.049.377,1.868,1.132,2.456.755.589,1.746.883,2.974.883h8.519c1.254,0,2.252-.294,2.994-.883.742-.588,1.112-1.407,1.112-2.456,0-2.226-1.369-3.339-4.106-3.339Z" fill="#fff" stroke-width="0"/>
          <path d="m1103.102,159.036h8.405c3.198,0,5.769,1.017,7.713,3.051,1.945,2.034,2.917,4.509,2.917,7.426,0,2.942-.978,5.463-2.936,7.56s-4.522,3.147-7.694,3.147h-8.328c-3.198,0-5.75-1.062-7.656-3.186s-2.859-4.605-2.859-7.445c0-2.941.973-5.436,2.917-7.483,1.944-2.046,4.451-3.071,7.522-3.071Zm8.558,7.254h-8.519c-2.738,0-4.106,1.112-4.106,3.339,0,1.049.377,1.868,1.132,2.456.755.589,1.746.883,2.974.883h8.519c1.254,0,2.252-.294,2.994-.883.742-.588,1.112-1.407,1.112-2.456,0-2.226-1.369-3.339-4.106-3.339Z" fill="#fff" stroke-width="0"/>
          <path d="m1103.102,134.556h8.405c3.198,0,5.769,1.017,7.713,3.051,1.945,2.034,2.917,4.509,2.917,7.426,0,2.942-.978,5.463-2.936,7.56s-4.522,3.147-7.694,3.147h-8.328c-3.198,0-5.75-1.062-7.656-3.186s-2.859-4.605-2.859-7.445c0-2.941.973-5.436,2.917-7.483,1.944-2.046,4.451-3.071,7.522-3.071Zm8.558,7.254h-8.519c-2.738,0-4.106,1.112-4.106,3.339,0,1.049.377,1.868,1.132,2.456.755.589,1.746.883,2.974.883h8.519c1.254,0,2.252-.294,2.994-.883.742-.588,1.112-1.407,1.112-2.456,0-2.226-1.369-3.339-4.106-3.339Z" fill="#fff" stroke-width="0"/>
          <path d="m1128.699,124.284v6.37h-28.398v-5.986h2.34v-.115c-2.046-1.637-3.069-3.863-3.069-6.678,0-3.019,1.1-5.5,3.3-7.445,2.2-1.944,4.963-2.917,8.289-2.917,3.096,0,5.731.979,7.906,2.936,2.175,1.958,3.262,4.433,3.262,7.426,0,2.661-.883,4.797-2.648,6.409h9.018Zm-13.892-1.267c1.049-1.023,1.573-2.289,1.573-3.799s-.531-2.776-1.593-3.8c-1.061-1.023-2.334-1.535-3.818-1.535-1.509,0-2.795.518-3.857,1.554-1.061,1.036-1.593,2.309-1.593,3.818,0,1.458.525,2.705,1.574,3.742,1.049,1.036,2.341,1.554,3.876,1.554,1.51,0,2.789-.512,3.838-1.535Z" fill="#fff" stroke-width="0"/>
          <path d="m1121.6,83.631v7.791l-6.601,4.26,6.601,4.337v7.675l-11.398-8.097-9.901,7.176v-7.637l5.603-3.453-5.603-3.416v-7.56l9.901,7.176,11.398-8.251Z" fill="#fff" stroke-width="0"/>
        </g>
      </g>
      <g>
        <path d="m544.7,301.508h-11.28l-9.42-16.02h-.12v16.02h-9.96v-44.4h9.96v23.16h.12l9.24-12.06h11.82l-12.54,14.64,12.18,18.66Z" fill="#fff" stroke-width="0"/>
        <path d="m579.607,287.888h-24.96c.279,1.881,1.14,3.4,2.58,4.561,1.44,1.16,3.18,1.739,5.22,1.739,2.439,0,4.46-1.039,6.06-3.12h10.2c-1.601,3.641-3.831,6.471-6.69,8.49-2.86,2.02-6.05,3.03-9.57,3.03-4.84,0-8.991-1.71-12.45-5.13-3.46-3.42-5.19-7.59-5.19-12.51,0-4.84,1.7-9.03,5.1-12.57,3.399-3.54,7.52-5.311,12.36-5.311,5,0,9.18,1.74,12.54,5.221,3.36,3.479,5.04,7.8,5.04,12.96,0,.96-.081,1.84-.24,2.64Zm-24.84-6.72h15.12c-.4-1.72-1.29-3.1-2.67-4.141-1.38-1.039-3.03-1.56-4.95-1.56-1.84,0-3.45.51-4.83,1.53-1.38,1.02-2.271,2.41-2.67,4.17Z" fill="#fff" stroke-width="0"/>
        <path d="m617.737,287.888h-24.96c.279,1.881,1.14,3.4,2.58,4.561,1.44,1.16,3.18,1.739,5.22,1.739,2.439,0,4.46-1.039,6.06-3.12h10.2c-1.601,3.641-3.831,6.471-6.69,8.49-2.86,2.02-6.05,3.03-9.57,3.03-4.84,0-8.991-1.71-12.45-5.13-3.46-3.42-5.19-7.59-5.19-12.51,0-4.84,1.7-9.03,5.1-12.57,3.399-3.54,7.52-5.311,12.36-5.311,5,0,9.18,1.74,12.54,5.221,3.36,3.479,5.04,7.8,5.04,12.96,0,.96-.081,1.84-.24,2.64Zm-24.84-6.72h15.12c-.4-1.72-1.29-3.1-2.67-4.141-1.38-1.039-3.03-1.56-4.95-1.56-1.84,0-3.45.51-4.83,1.53-1.38,1.02-2.271,2.41-2.67,4.17Z" fill="#fff" stroke-width="0"/>
        <path d="m632.833,312.607h-9.96v-44.399h9.36v3.66h.18c2.559-3.2,6.039-4.801,10.44-4.801,4.719,0,8.6,1.721,11.64,5.16,3.039,3.44,4.56,7.761,4.56,12.96,0,4.841-1.53,8.961-4.59,12.36-3.06,3.4-6.93,5.1-11.61,5.1-4.161,0-7.5-1.38-10.02-4.14v14.1Zm1.98-21.72c1.599,1.641,3.579,2.46,5.94,2.46s4.34-.829,5.94-2.49c1.6-1.659,2.4-3.649,2.4-5.97,0-2.359-.81-4.369-2.43-6.03-1.62-1.659-3.61-2.489-5.97-2.489-2.28,0-4.23.82-5.85,2.46-1.62,1.641-2.43,3.66-2.43,6.06,0,2.36.799,4.36,2.4,6Z" fill="#fff" stroke-width="0"/>
        <path d="m695.172,301.508h-9.96v-25.74h-4.92v-7.56h4.92v-11.101h9.96v11.101h4.8v7.56h-4.8v25.74Z" fill="#fff" stroke-width="0"/>
        <path d="m734.94,301.508h-9.96v-18.3c0-4.52-1.78-6.78-5.34-6.78-3.72,0-5.58,2.121-5.58,6.36v18.72h-9.96v-44.4h9.96v14.28c.72-1.359,1.839-2.42,3.36-3.18,1.52-.76,3.279-1.141,5.28-1.141,3.84,0,6.84,1.171,9,3.511s3.24,5.67,3.24,9.989v20.94Z" fill="#fff" stroke-width="0"/>
        <path d="m774.406,287.888h-24.959c.279,1.881,1.14,3.4,2.58,4.561s3.18,1.739,5.22,1.739c2.439,0,4.46-1.039,6.061-3.12h10.2c-1.602,3.641-3.832,6.471-6.69,8.49-2.86,2.02-6.051,3.03-9.57,3.03-4.84,0-8.99-1.71-12.449-5.13-3.461-3.42-5.19-7.59-5.19-12.51,0-4.84,1.699-9.03,5.1-12.57,3.399-3.54,7.521-5.311,12.36-5.311,5,0,9.18,1.74,12.54,5.221,3.359,3.479,5.039,7.8,5.039,12.96,0,.96-.08,1.84-.24,2.64Zm-24.839-6.72h15.12c-.4-1.72-1.29-3.1-2.67-4.141-1.38-1.039-3.03-1.56-4.95-1.56-1.84,0-3.45.51-4.83,1.53-1.38,1.02-2.271,2.41-2.67,4.17Z" fill="#fff" stroke-width="0"/>
        <path d="m444.228,336.668h-9.96v-7.561h9.96v7.561Zm0,36.84h-9.96v-33.3h9.96v33.3Z" fill="#fff" stroke-width="0"/>
        <path d="m502.092,373.508h-9.96v-17.94c0-2.559-.41-4.389-1.23-5.489-.82-1.1-2.11-1.65-3.87-1.65-3.681,0-5.52,2.22-5.52,6.66v18.42h-9.96v-18.36c0-4.479-1.661-6.72-4.98-6.72-3.761,0-5.64,2.381-5.64,7.14v17.94h-9.96v-33.3h9.3v3.54h.12c1.719-3.12,4.779-4.681,9.18-4.681,4.2,0,7.399,1.98,9.6,5.94,2.52-3.96,6.04-5.94,10.56-5.94,3.84,0,6.86,1.181,9.06,3.54,2.199,2.361,3.3,5.801,3.3,10.32v20.58Z" fill="#fff" stroke-width="0"/>
        <path d="m518.639,384.607h-9.96v-44.399h9.36v3.66h.18c2.559-3.2,6.039-4.801,10.44-4.801,4.719,0,8.6,1.721,11.64,5.16,3.039,3.44,4.56,7.761,4.56,12.96,0,4.841-1.53,8.961-4.59,12.36-3.06,3.4-6.93,5.1-11.61,5.1-4.161,0-7.5-1.38-10.02-4.14v14.1Zm1.98-21.72c1.599,1.641,3.579,2.46,5.94,2.46s4.34-.829,5.94-2.49c1.6-1.659,2.4-3.649,2.4-5.97,0-2.359-.81-4.369-2.43-6.03-1.62-1.659-3.61-2.489-5.97-2.489-2.28,0-4.23.82-5.85,2.46-1.62,1.641-2.43,3.66-2.43,6.06,0,2.36.799,4.36,2.4,6Z" fill="#fff" stroke-width="0"/>
        <path d="m584.026,356.708c0,5.16-1.72,9.42-5.16,12.78-3.44,3.359-7.7,5.039-12.78,5.039s-9.34-1.68-12.78-5.039c-3.441-3.36-5.16-7.58-5.16-12.66,0-5.12,1.729-9.35,5.19-12.69,3.459-3.339,7.71-5.01,12.75-5.01s9.29,1.68,12.75,5.04c3.459,3.359,5.19,7.54,5.19,12.54Zm-17.94,8.52c2.28,0,4.179-.829,5.7-2.489,1.52-1.66,2.28-3.631,2.28-5.91s-.771-4.25-2.31-5.91c-1.54-1.659-3.45-2.49-5.73-2.49-2.2,0-4.07.831-5.61,2.49-1.541,1.66-2.31,3.63-2.31,5.91,0,2.32.77,4.3,2.31,5.939,1.54,1.641,3.429,2.46,5.67,2.46Z" fill="#fff" stroke-width="0"/>
        <path d="m598.912,373.508h-9.96v-33.3h9.36v3.54h.12c1.52-3.12,4.299-4.681,8.34-4.681v10.021c-2.84.04-4.86.561-6.06,1.56-1.2,1.001-1.8,2.501-1.8,4.5v18.36Z" fill="#fff" stroke-width="0"/>
        <path d="m623.529,373.508h-9.96v-25.74h-4.92v-7.56h4.92v-11.101h9.96v11.101h4.8v7.56h-4.8v25.74Z" fill="#fff" stroke-width="0"/>
        <path d="m666.675,373.508h-9.96v-3.6h-.12c-.72,1.439-1.98,2.59-3.78,3.449-1.8.86-3.801,1.29-6,1.29-4.881,0-8.88-1.699-12-5.1-3.12-3.399-4.68-7.64-4.68-12.72,0-4.96,1.599-9.16,4.8-12.601,3.2-3.439,7.16-5.16,11.88-5.16,2.079,0,3.999.411,5.76,1.23,1.76.82,3.1,1.971,4.02,3.45h.12v-3.54h9.96v33.3Zm-18.3-8.16c2.36,0,4.34-.819,5.94-2.46,1.599-1.64,2.4-3.66,2.4-6.06,0-2.319-.831-4.31-2.49-5.971-1.66-1.659-3.65-2.489-5.97-2.489-2.28,0-4.21.83-5.79,2.489-1.581,1.661-2.37,3.69-2.37,6.091,0,2.32.8,4.3,2.4,5.939,1.6,1.641,3.56,2.46,5.88,2.46Z" fill="#fff" stroke-width="0"/>
        <path d="m704.259,373.508h-9.96v-18.48c0-2.279-.42-3.949-1.26-5.01-.84-1.06-2.16-1.59-3.96-1.59-2,0-3.45.551-4.35,1.65-.9,1.101-1.35,2.79-1.35,5.069v18.36h-9.96v-33.3h9.3v3.54h.12c1.92-3.12,4.939-4.681,9.06-4.681,1.599,0,3.099.231,4.5.69,1.399.46,2.7,1.19,3.9,2.19s2.16,2.38,2.88,4.14c.72,1.761,1.08,3.82,1.08,6.18v21.24Z" fill="#fff" stroke-width="0"/>
        <path d="m722.577,373.508h-9.96v-25.74h-4.92v-7.56h4.92v-11.101h9.96v11.101h4.8v7.56h-4.8v25.74Z" fill="#fff" stroke-width="0"/>
        <path d="m759.776,373.508h-9.54v-44.4h9.96v13.74c2.36-2.52,5.521-3.78,9.479-3.78,4.561,0,8.461,1.601,11.701,4.801s4.859,7.46,4.859,12.779c0,5.2-1.541,9.501-4.619,12.9-3.082,3.4-7.141,5.1-12.182,5.1-2.039,0-3.949-.43-5.729-1.29-1.78-.859-3.05-1.989-3.81-3.39h-.12v3.54Zm8.159-8.16c2.361,0,4.34-.819,5.941-2.46,1.6-1.64,2.398-3.66,2.398-6.06,0-2.28-.779-4.261-2.34-5.94-1.559-1.68-3.52-2.52-5.879-2.52-2.28,0-4.221.82-5.82,2.46-1.601,1.641-2.399,3.62-2.399,5.939,0,2.44.77,4.48,2.31,6.12,1.539,1.641,3.47,2.46,5.789,2.46Z" fill="#fff" stroke-width="0"/>
        <path d="m801.301,336.668h-9.96v-7.561h9.96v7.561Zm0,36.84h-9.96v-33.3h9.96v33.3Z" fill="#fff" stroke-width="0"/>
        <path d="m820.381,373.508h-9.96v-25.74h-4.92v-7.56h4.92v-11.101h9.96v11.101h4.8v7.56h-4.8v25.74Z" fill="#fff" stroke-width="0"/>
        <path d="m853.46,349.567h-9.78c-.04-1.68-1.061-2.52-3.06-2.52-.84,0-1.53.21-2.07.63s-.81.951-.81,1.59c0,.881.449,1.601,1.35,2.16.9.561,2.529,1.14,4.89,1.74,3.841,1,6.55,2.31,8.131,3.93,1.579,1.62,2.369,3.69,2.369,6.21,0,3.4-1.29,6.141-3.869,8.22-2.58,2.08-5.812,3.12-9.69,3.12-3.761,0-6.87-1-9.33-3-2.46-1.999-3.87-4.68-4.229-8.04h9.899c.279,2.04,1.539,3.061,3.78,3.061.92,0,1.729-.24,2.43-.72.699-.48,1.05-1.101,1.05-1.86,0-.96-.41-1.74-1.229-2.34-.82-.601-2.451-1.28-4.89-2.04-3.961-1.2-6.721-2.6-8.28-4.2-1.561-1.6-2.34-3.459-2.34-5.58,0-3.199,1.279-5.81,3.84-7.83,2.56-2.02,5.58-3.03,9.06-3.03,3.64,0,6.62.94,8.94,2.82,2.319,1.881,3.6,4.44,3.84,7.68Z" fill="#fff" stroke-width="0"/>
        <path d="m456.213,408.668h-9.96v-7.561h9.96v7.561Zm0,36.84h-9.96v-33.3h9.96v33.3Z" fill="#fff" stroke-width="0"/>
        <path d="m493.796,445.508h-9.96v-18.48c0-2.279-.42-3.949-1.26-5.01-.84-1.06-2.16-1.59-3.96-1.59-2,0-3.45.551-4.35,1.65-.9,1.101-1.35,2.79-1.35,5.069v18.36h-9.96v-33.3h9.3v3.54h.12c1.92-3.12,4.939-4.681,9.06-4.681,1.599,0,3.099.231,4.5.69,1.399.46,2.7,1.19,3.9,2.19s2.16,2.38,2.88,4.14c.72,1.761,1.08,3.82,1.08,6.18v21.24Z" fill="#fff" stroke-width="0"/>
        <path d="m531.355,445.508h-9.96v-25.74h-4.92v-7.56h4.92v-11.101h9.96v11.101h4.8v7.56h-4.8v25.74Z" fill="#fff" stroke-width="0"/>
        <path d="m571.123,445.508h-9.96v-18.3c0-4.52-1.78-6.78-5.34-6.78-3.72,0-5.58,2.121-5.58,6.36v18.72h-9.96v-44.4h9.96v14.28c.72-1.359,1.839-2.42,3.36-3.18,1.52-.76,3.279-1.141,5.28-1.141,3.84,0,6.84,1.171,9,3.511,2.16,2.34,3.24,5.67,3.24,9.989v20.94Z" fill="#fff" stroke-width="0"/>
        <path d="m610.591,431.888h-24.96c.279,1.881,1.14,3.4,2.58,4.561,1.44,1.16,3.18,1.739,5.22,1.739,2.439,0,4.46-1.039,6.06-3.12h10.2c-1.601,3.641-3.831,6.471-6.69,8.49-2.86,2.02-6.05,3.03-9.57,3.03-4.84,0-8.991-1.71-12.45-5.13-3.46-3.42-5.19-7.59-5.19-12.51,0-4.84,1.7-9.03,5.1-12.57,3.399-3.54,7.52-5.311,12.36-5.311,5,0,9.18,1.74,12.54,5.221,3.36,3.479,5.04,7.8,5.04,12.96,0,.96-.081,1.84-.24,2.64Zm-24.84-6.72h15.12c-.4-1.72-1.29-3.1-2.67-4.141-1.38-1.039-3.03-1.56-4.95-1.56-1.84,0-3.45.51-4.83,1.53-1.38,1.02-2.271,2.41-2.67,4.17Z" fill="#fff" stroke-width="0"/>
        <path d="m686.01,445.508h-9.96v-17.94c0-2.559-.41-4.389-1.23-5.489-.82-1.1-2.11-1.65-3.87-1.65-3.681,0-5.52,2.22-5.52,6.66v18.42h-9.96v-18.36c0-4.479-1.661-6.72-4.98-6.72-3.761,0-5.64,2.381-5.64,7.14v17.94h-9.96v-33.3h9.3v3.54h.12c1.719-3.12,4.779-4.681,9.18-4.681,4.2,0,7.399,1.98,9.6,5.94,2.52-3.96,6.04-5.94,10.56-5.94,3.84,0,6.86,1.181,9.06,3.54,2.199,2.361,3.3,5.801,3.3,10.32v20.58Z" fill="#fff" stroke-width="0"/>
        <path d="m702.588,408.668h-9.96v-7.561h9.96v7.561Zm0,36.84h-9.96v-33.3h9.96v33.3Z" fill="#fff" stroke-width="0"/>
        <path d="m743.993,445.508h-9.479v-3.6h-.12c-1.881,3.119-5.2,4.68-9.96,4.68-4.96,0-8.98-1.689-12.06-5.07-3.081-3.38-4.62-7.629-4.62-12.75,0-5.04,1.55-9.249,4.65-12.63,3.1-3.38,7.05-5.07,11.851-5.07,3.879,0,7.14,1.32,9.779,3.96v-13.92h9.96v44.4Zm-17.939-8.22c2.439,0,4.47-.819,6.09-2.46,1.62-1.64,2.43-3.68,2.43-6.12,0-2.319-.8-4.29-2.399-5.91-1.601-1.62-3.621-2.43-6.061-2.43-2.36,0-4.35.79-5.97,2.37s-2.43,3.569-2.43,5.97c0,2.52.79,4.58,2.371,6.18,1.579,1.601,3.569,2.4,5.97,2.4Z" fill="#fff" stroke-width="0"/>
        <path d="m785.292,445.508h-9.48v-3.6h-.12c-1.88,3.119-5.2,4.68-9.959,4.68-4.961,0-8.98-1.689-12.061-5.07-3.08-3.38-4.62-7.629-4.62-12.75,0-5.04,1.55-9.249,4.65-12.63,3.1-3.38,7.05-5.07,11.85-5.07,3.879,0,7.14,1.32,9.78,3.96v-13.92h9.96v44.4Zm-17.94-8.22c2.439,0,4.47-.819,6.09-2.46,1.62-1.64,2.431-3.68,2.431-6.12,0-2.319-.801-4.29-2.4-5.91-1.601-1.62-3.62-2.43-6.06-2.43-2.36,0-4.351.79-5.97,2.37-1.62,1.58-2.431,3.569-2.431,5.97,0,2.52.79,4.58,2.37,6.18,1.58,1.601,3.57,2.4,5.97,2.4Z" fill="#fff" stroke-width="0"/>
        <path d="m801.964,445.508h-9.96v-44.4h9.96v44.4Z" fill="#fff" stroke-width="0"/>
        <path d="m841.714,431.888h-24.96c.279,1.881,1.141,3.4,2.58,4.561,1.44,1.16,3.181,1.739,5.221,1.739,2.438,0,4.459-1.039,6.06-3.12h10.2c-1.601,3.641-3.831,6.471-6.69,8.49-2.86,2.02-6.051,3.03-9.569,3.03-4.841,0-8.991-1.71-12.45-5.13-3.461-3.42-5.19-7.59-5.19-12.51,0-4.84,1.7-9.03,5.101-12.57,3.399-3.54,7.52-5.311,12.359-5.311,5,0,9.181,1.74,12.54,5.221,3.36,3.479,5.04,7.8,5.04,12.96,0,.96-.08,1.84-.24,2.64Zm-24.84-6.72h15.12c-.4-1.72-1.29-3.1-2.67-4.141-1.38-1.039-3.03-1.56-4.95-1.56-1.84,0-3.45.51-4.83,1.53-1.38,1.02-2.271,2.41-2.67,4.17Z" fill="#fff" stroke-width="0"/>
      </g>
    </g>
  </g>
</svg>